<svg width="20" height="20" viewBox="0 0 20 20" fill="none" xmlns="http://www.w3.org/2000/svg">
<path fill-rule="evenodd" clip-rule="evenodd" d="M3.39898 3.39895C3.73093 3.06701 4.26912 3.06701 4.60107 3.39895L10 8.79791L15.399 3.39895C15.7309 3.06701 16.2691 3.06701 16.6011 3.39895C16.933 3.7309 16.933 4.26909 16.6011 4.60103L11.2021 9.99999L16.6011 15.399C16.933 15.7309 16.933 16.2691 16.6011 16.601C16.2691 16.933 15.7309 16.933 15.399 16.601L10 11.2021L4.60107 16.601C4.26912 16.933 3.73093 16.933 3.39898 16.601C3.06704 16.2691 3.06704 15.7309 3.39898 15.399L8.79794 9.99999L3.39898 4.60103C3.06704 4.26909 3.06704 3.7309 3.39898 3.39895Z" fill="white"/>
</svg>
